<?xml version="1.0" encoding="UTF-8" standalone="no"?>
<svg
   xmlns:dc="http://purl.org/dc/elements/1.1/"
   xmlns:cc="http://creativecommons.org/ns#"
   xmlns:rdf="http://www.w3.org/1999/02/22-rdf-syntax-ns#"
   xmlns:svg="http://www.w3.org/2000/svg"
   xmlns="http://www.w3.org/2000/svg"
   xmlns:sodipodi="http://sodipodi.sourceforge.net/DTD/sodipodi-0.dtd"
   xmlns:inkscape="http://www.inkscape.org/namespaces/inkscape"
   width="24"
   height="24"
   version="1.1"
   id="svg817"
   sodipodi:docname="facebook.svg"
   inkscape:version="0.92.4 (5da689c313, 2019-01-14)">
  <metadata
     id="metadata823">
    <rdf:RDF>
      <cc:Work
         rdf:about="">
        <dc:format>image/svg+xml</dc:format>
        <dc:type
           rdf:resource="http://purl.org/dc/dcmitype/StillImage" />
      </cc:Work>
    </rdf:RDF>
  </metadata>
  <defs
     id="defs821" />
  <sodipodi:namedview
     pagecolor="#ffffff"
     bordercolor="#666666"
     borderopacity="1"
     objecttolerance="10"
     gridtolerance="10"
     guidetolerance="10"
     inkscape:pageopacity="0"
     inkscape:pageshadow="2"
     inkscape:window-width="1366"
     inkscape:window-height="705"
     id="namedview819"
     showgrid="false"
     inkscape:zoom="11.166667"
     inkscape:cx="12"
     inkscape:cy="12"
     inkscape:window-x="-8"
     inkscape:window-y="-8"
     inkscape:window-maximized="1"
     inkscape:current-layer="svg817" />
  <path
     style="fill:#023cb0;stroke-width:0.99999988"
     d="M 1.3673632,23.678047 C 0.91676853,23.443698 0.58766014,23.11321 0.35701834,22.663466 0.16416815,22.287414 0.15671706,21.890689 0.15671706,11.999282 c 0,-9.2533103 0.0169038,-10.3070579 0.17022417,-10.6105102 C 0.5672139,0.91321966 0.88421468,0.5894621 1.3368505,0.3573369 1.7129024,0.16448659 2.1096085,0.15703473 11.999999,0.15703473 c 9.890391,0 10.287099,0.007457 10.663149,0.20030217 0.452637,0.2321252 0.769637,0.55588276 1.00991,1.0314349 0.15332,0.3034523 0.170225,1.3571999 0.170225,10.6105102 0,9.891407 -0.0074,10.288132 -0.200303,10.664184 -0.232124,0.452635 -0.555882,0.769637 -1.031435,1.00991 -0.303493,0.15334 -1.358123,0.17016 -10.632636,0.169575 C 2.8563529,23.842378 1.6471976,23.823584 1.3673632,23.678047 Z M 7.186626,21.04788 7.4205969,20.883999 V 15.081891 C 7.4205969,9.8306991 7.4040559,9.2615014 7.24637,9.0872635 7.0932504,8.9180682 6.8920367,8.894746 5.5854167,8.894746 4.4101942,8.894746 4.049666,8.929081 3.864717,9.0586249 L 3.6307462,9.222505 v 5.830747 5.830747 L 3.864717,21.04788 c 0.1838259,0.128756 0.5398056,0.16388 1.6609546,0.16388 1.1211489,0 1.4771274,-0.03513 1.6609544,-0.16388 z m 5.739071,-0.02262 c 0.146234,-0.161587 0.173021,-0.650229 0.200545,-3.658258 0.03106,-3.395676 0.03725,-3.483892 0.281927,-4.025216 0.774283,-1.713025 2.882956,-1.851749 3.673685,-0.241682 l 0.2871,0.584589 0.03283,3.578203 c 0.02839,3.095187 0.05546,3.60322 0.200545,3.763531 0.146091,0.16143 0.37395,0.18533 1.76683,0.18533 1.451029,0 1.616289,-0.01899 1.784644,-0.205016 0.172378,-0.190473 0.181729,-0.487282 0.131853,-4.184626 -0.05871,-4.352269 -0.118375,-4.86866 -0.694338,-6.009639 C 20.23671,10.110011 19.501035,9.3856217 18.84956,9.0974432 18.114151,8.7721379 16.920927,8.6391236 15.985798,8.7782065 14.91448,8.9375456 14.322967,9.2149174 13.658059,9.8697274 L 13.105372,10.414019 V 9.8469001 c 0,-0.9165648 -0.06972,-0.9521541 -1.865525,-0.9521541 -0.844437,0 -1.6073551,0.048314 -1.7206986,0.1089784 -0.1975908,0.105745 -0.2036265,0.2833824 -0.2036265,5.9930766 0,5.208817 0.018982,5.903086 0.1654296,6.04953 0.1354615,0.13546 0.4471829,0.16543 1.7206995,0.16543 1.354718,0 1.577032,-0.02405 1.724046,-0.186498 z M 6.5257708,7.5381437 c 0.9080037,-0.418251 1.4422487,-1.2396053 1.4422487,-2.2173284 0,-1.6981282 -1.4994181,-2.8536457 -3.0964284,-2.3862437 -1.1043783,0.3232215 -1.767213,1.1904733 -1.767213,2.312216 0,1.0253535 0.5274843,1.8752794 1.4211942,2.2899439 0.5475403,0.2540499 1.4503531,0.2546865 2.0001985,0.00143 z"
     id="path836"
     inkscape:connector-curvature="0" />
</svg>