<?xml version="1.0" encoding="UTF-8" standalone="no"?>
<svg
   xmlns:dc="http://purl.org/dc/elements/1.1/"
   xmlns:cc="http://creativecommons.org/ns#"
   xmlns:rdf="http://www.w3.org/1999/02/22-rdf-syntax-ns#"
   xmlns:svg="http://www.w3.org/2000/svg"
   xmlns="http://www.w3.org/2000/svg"
   xmlns:sodipodi="http://sodipodi.sourceforge.net/DTD/sodipodi-0.dtd"
   xmlns:inkscape="http://www.inkscape.org/namespaces/inkscape"
   width="24"
   height="24"
   version="1.1"
   id="svg817"
   sodipodi:docname="PlayIcon.svg"
   inkscape:version="0.92.4 (5da689c313, 2019-01-14)">
  <metadata
     id="metadata823">
    <rdf:RDF>
      <cc:Work
         rdf:about="">
        <dc:format>image/svg+xml</dc:format>
        <dc:type
           rdf:resource="http://purl.org/dc/dcmitype/StillImage" />
      </cc:Work>
    </rdf:RDF>
  </metadata>
  <defs
     id="defs821" />
  <sodipodi:namedview
     pagecolor="#ffffff"
     bordercolor="#666666"
     borderopacity="1"
     objecttolerance="10"
     gridtolerance="10"
     guidetolerance="10"
     inkscape:pageopacity="0"
     inkscape:pageshadow="2"
     inkscape:window-width="1366"
     inkscape:window-height="705"
     id="namedview819"
     showgrid="false"
     inkscape:zoom="7.9592201"
     inkscape:cx="10.923216"
     inkscape:cy="11.899052"
     inkscape:window-x="-8"
     inkscape:window-y="-8"
     inkscape:window-maximized="1"
     inkscape:current-layer="svg817" />
  <path
     style="fill:#ffffff;stroke-width:1"
     d="M 11.06706,23.747024 C 9.8379166,23.647005 8.5273063,23.326378 7.4154575,22.853698 3.7431992,21.29251 1.1234224,18.023217 0.41196851,14.113847 0.27342613,13.352573 0.25031362,13.051358 0.25031362,12.007097 c 0,-1.237564 0.073017,-1.87315 0.33413994,-2.9085736 C 1.6316209,4.9462257 4.9341515,1.6445244 9.0888798,0.59623223 10.682337,0.19418193 12.506215,0.13145828 14.10141,0.42384975 c 1.954728,0.35829218 3.711629,1.16358005 5.298319,2.42852135 0.490442,0.3909908 1.365389,1.2674449 1.762342,1.7653777 1.232705,1.5462879 2.049597,3.3163162 2.401712,5.2039874 0.124552,0.6677208 0.163737,1.0723398 0.181454,1.8736708 0.02661,1.203358 -0.06419,2.082952 -0.32426,3.141195 -0.34156,1.389854 -1.001488,2.831463 -1.82509,3.9869 -0.557953,0.782756 -1.462411,1.745003 -2.180437,2.31975 -1.7815,1.42601 -3.624879,2.213559 -5.963357,2.547733 -0.330442,0.04722 -2.008785,0.08665 -2.385033,0.05604 z m 2.296405,-2.113022 c 0.571776,-0.08792 1.085982,-0.20752 1.589969,-0.369804 2.517342,-0.810586 4.584751,-2.595245 5.75161,-4.964991 0.153282,-0.311296 0.327992,-0.700416 0.388244,-0.864711 0.826353,-2.25327 0.826353,-4.601529 0,-6.8547992 C 20.810793,7.8093973 20.19603,6.7221299 19.644292,6.0170082 18.287655,4.2832271 16.366553,3.0517935 14.227186,2.5446261 13.408264,2.3504888 13.01629,2.3091446 11.994659,2.3091446 c -0.807384,0 -0.986686,0.0092 -1.383537,0.071006 -2.1365038,0.3327329 -4.0007372,1.268923 -5.4876109,2.7557971 -1.4873234,1.4873238 -2.4322174,3.369428 -2.7550059,5.4876113 -0.065529,0.43 -0.074105,0.594743 -0.072861,1.399259 0.00119,0.786219 0.011189,0.974706 0.072388,1.367816 0.3332497,2.140667 1.2730885,4.008232 2.7643523,5.493075 1.5001255,1.493668 3.4167236,2.453353 5.4787375,2.74333 0.640208,0.09003 0.648689,0.09047 1.540757,0.07968 0.605319,-0.0073 0.902244,-0.02514 1.211586,-0.07271 z m -3.316793,-5.900787 c -0.02641,-0.09216 -0.03352,-1.106133 -0.02665,-3.794168 l 0.0094,-3.6683905 c -0.0092,-0.4448692 0.596977,-0.5342988 0.845815,-0.3703586 0.116014,0.048474 4.907954,3.5164361 5.077932,3.6749381 0.264132,0.246296 0.256356,0.655217 -0.01726,0.9072 -0.136382,0.125605 -4.915006,3.587208 -5.039956,3.650912 -0.313984,0.233614 -0.847339,-0.132773 -0.849281,-0.400133 z"
     id="path835"
     inkscape:connector-curvature="0"
     sodipodi:nodetypes="csssssssssccssccccscssssssscscsscccccccccc" />
</svg>
