<svg xmlns="http://www.w3.org/2000/svg" width="1920" height="540" viewBox="0 0 508 142.875"><path d="M454.664 12.238v23.68h-25.772v23.678h25.772v47.36h25.77v-47.02h7.276l17.87-16.71v-6.97h-25.146V12.243zM2.42 35.918v94.72H28.2v-71.04h25.77v23.68h-25.76v6.97l17.87 16.712h33.66l-.012-54.33-17.87-16.71H28.2zm103.154 0l-17.87 16.71v6.97H87.7v23.68h.028v6.97l17.87 16.712h33.66v-16.7l17.86 16.7h7.9v-23.68H165v-23.68h-17.882l17.87-16.71v-6.97h-51.532zm67.424 0v71.04h25.77v-71.04zm43.654 0l-17.87 16.71v6.97h25.76v47.36h25.77v-71.04h-25.77zm41.653 0v71.04h77.315v-71.04h-51.543zm85.295 0v54.327l17.87 16.712H420.9v-71.04h-25.77v47.358h-25.772V35.918zM113.462 59.596h25.77v23.68H113.46zm170.612 0h25.77v23.68h-25.77z" fill="#fff"/></svg>