<?xml version="1.0" encoding="UTF-8" standalone="no"?>
<svg
   xmlns:dc="http://purl.org/dc/elements/1.1/"
   xmlns:cc="http://creativecommons.org/ns#"
   xmlns:rdf="http://www.w3.org/1999/02/22-rdf-syntax-ns#"
   xmlns:svg="http://www.w3.org/2000/svg"
   xmlns="http://www.w3.org/2000/svg"
   xmlns:sodipodi="http://sodipodi.sourceforge.net/DTD/sodipodi-0.dtd"
   xmlns:inkscape="http://www.inkscape.org/namespaces/inkscape"
   width="24"
   height="24"
   version="1.1"
   id="svg817"
   sodipodi:docname="Whatsappicon.svg"
   inkscape:version="0.92.4 (5da689c313, 2019-01-14)">
  <metadata
     id="metadata823">
    <rdf:RDF>
      <cc:Work
         rdf:about="">
        <dc:format>image/svg+xml</dc:format>
        <dc:type
           rdf:resource="http://purl.org/dc/dcmitype/StillImage" />
      </cc:Work>
    </rdf:RDF>
  </metadata>
  <defs
     id="defs821" />
  <sodipodi:namedview
     pagecolor="#ffffff"
     bordercolor="#666666"
     borderopacity="1"
     objecttolerance="10"
     gridtolerance="10"
     guidetolerance="10"
     inkscape:pageopacity="0"
     inkscape:pageshadow="2"
     inkscape:window-width="1366"
     inkscape:window-height="705"
     id="namedview819"
     showgrid="false"
     inkscape:zoom="15.91844"
     inkscape:cx="3.049095"
     inkscape:cy="11.899052"
     inkscape:window-x="-8"
     inkscape:window-y="-8"
     inkscape:window-maximized="1"
     inkscape:current-layer="svg817" />
  <path
     style="fill:#ffffff;stroke-width:3.77952766"
     d="M 0.34473243,23.006076 C 0.37584914,22.72058 0.5985404,21.976933 1.1601969,20.282964 1.5851587,19.00127 1.933208,17.903901 1.9336376,17.844373 1.9340506,17.784849 1.7907366,17.428855 1.6151229,17.053282 0.90213891,15.528482 0.5806481,14.334961 0.45383029,12.742032 0.32919432,11.176512 0.52076318,9.6252117 1.0293795,8.081312 1.7187995,5.9885879 2.892044,4.2542867 4.5658919,2.8536038 5.6093955,1.9803966 7.0710823,1.1749414 8.4405245,0.71850944 10.466005,0.01716121 12.793751,-0.00961376 15.091778,0.52429976 c 0.877955,0.21719468 2.354026,0.85435854 3.195178,1.37923414 1.374744,0.85784 2.626877,2.0701604 3.527107,3.4149547 0.589903,0.8812187 1.148893,2.1014883 1.473152,3.2158831 0.639347,1.6983283 0.575518,4.6122853 -0.02033,6.6258073 -1.229032,4.017674 -4.297368,6.972128 -8.279823,7.972518 -0.854796,0.214726 -1.463974,0.295934 -2.461276,0.328126 -1.972747,0.06367 -3.6301012,-0.249841 -5.3442175,-1.010921 -0.3489497,-0.154939 -0.665218,-0.281706 -0.7028177,-0.281706 -0.09057,0 -0.7296976,0.195756 -3.1172933,0.954776 -1.3448729,0.427536 -2.11729,0.646632 -2.38272558,0.675862 -0.77931799,0.120653 -0.80441275,0.05688 -0.63399649,-0.792758 z M 13.023257,21.170133 c 2.649142,-0.242338 5.200324,-1.764917 6.751227,-4.029223 0.38871,-0.567516 0.716703,-1.17704 1.042645,-1.937603 0.745716,-2.193651 0.898169,-4.346129 0.208704,-6.2579261 C 19.91164,5.8830141 17.766374,3.7893563 14.723489,2.7946524 13.022854,2.304264 10.978583,2.2874513 9.3609824,2.8220641 6.3269756,3.8324628 4.1222837,6.017954 3.131017,8.9977755 2.7827943,10.04456 2.7020863,10.557527 2.7036425,11.714093 c 0.00194,1.450481 0.064331,1.84818 0.4781164,3.048199 0.2642373,0.766318 0.6189249,1.522893 1.0083859,2.150959 0.1634574,0.263598 0.297196,0.510529 0.297196,0.54873 0,0.03821 -0.2374213,0.773197 -0.5276032,1.633322 -0.2901816,0.860128 -0.5179718,1.573495 -0.5062009,1.585266 0.022164,0.02217 0.5326503,-0.133238 2.1799288,-0.663615 0.5295614,-0.1705 1.0452039,-0.310006 1.1458726,-0.310006 0.1240762,0 0.3325897,0.08559 0.6473297,0.265697 0.8011325,0.458456 2.0193298,0.928469 2.8389972,1.09536 0.716612,0.145909 1.828861,0.187114 2.757592,0.10216 z m 1.152088,-3.585184 C 13.779574,17.487508 12.444225,16.93542 11.769347,16.590213 10.750854,16.069241 9.9547014,15.429929 8.9009423,14.286876 6.1051005,11.254128 5.4554881,8.4555083 7.1151436,6.5934196 7.4635696,6.2024953 7.7331749,6.0821728 8.3293476,6.0515355 8.963378,6.0189473 9.2146542,6.088305 9.3826961,6.342306 c 0.1877368,0.2837583 0.5269176,1.0901528 0.7910869,1.8807996 0.312001,0.9337977 0.316834,1.2305997 0.02719,1.6698605 -0.112147,0.1700809 -0.319822,0.4495019 -0.4615018,0.6209389 l -0.2576004,0.311698 0.1977245,0.35971 c 0.6951497,1.26465 2.0999367,2.587374 3.4062347,3.207251 0.258746,0.122783 0.440698,0.179244 0.508397,0.157757 0.05799,-0.01842 0.347205,-0.293456 0.642704,-0.611222 0.881806,-0.94827 0.813004,-0.946609 2.557122,-0.06165 l 1.308858,0.66411 v 0.609388 c 0,0.930498 -0.152478,1.329801 -0.686027,1.796533 -0.366425,0.320542 -0.933661,0.598054 -1.356309,0.663558 -0.474753,0.07357 -1.540307,0.05883 -1.885234,-0.02611 z"
     id="path839"
     inkscape:connector-curvature="0"
     sodipodi:nodetypes="csccsssccscccsccssccccccccscscssccsccccccsscsscccccccccscccc" />
</svg>
